<svg
  width="10"
  height="10"
  viewBox="0 0 385 365"
  fill="none"
  xmlns="http://www.w3.org/2000/svg"
>
  <g filter="url(#filter0_d_511_43)">
    <path
      d="M162.118 3.8493C126.006 14.2549 111.973 28.4239 96.1141 66.0021C86.4733 71.0066 82.8444 72.3026 80.2731 71.2916C70.1784 68.9657 65.2869 67.848 57.1717 66.0021C54.1954 68.0296 54.5316 73.2752 54.5316 73.2752L61.132 83.8544C68.62 92.6451 72.8092 93.4105 80.2731 91.7888C82.66 91.874 83.2133 92.2099 81.5932 93.7724L63.7721 105.013C62.9202 106.304 62.7689 107.028 63.7721 108.319C75.3736 117.013 84.0069 115.315 99.3942 112.29L99.4143 112.286L104.695 124.188C97.4696 133.811 92.2215 138.564 80.9332 146.007C60.3969 154.132 51.5027 158.093 41.3308 163.86C17.5653 181.864 9.54332 195.229 4.36856 224.69C2.9675 242.849 5.36673 254.239 14.9292 274.941C27.2074 296.029 38.0163 304.396 61.132 315.936C95.6719 332.862 121.483 340.348 172.019 352.302C214.921 357.591 227.851 357.983 253.204 355.608C284.885 353.624 305.347 349.657 331.088 331.804C356.83 313.952 357.67 311.14 367.391 292.132C367.391 292.132 378.459 263.169 380.591 248.493C381.117 238.9 381.156 233.664 380.591 224.69L368.711 167.166C364.999 156.122 361.726 152.272 352.21 152.619C344.767 153.207 340.048 156.995 331.088 167.166C325.678 173.476 321.755 176.504 313.267 181.051C299.824 184.998 292.119 185.764 278.285 186.34C251.883 185.679 232.292 185.284 218.221 182.373C207.001 176.422 206.341 161.876 218.221 157.248C230.102 152.619 251.67 135.486 262.444 114.931C274.482 79.1709 272.355 62.0222 255.844 35.5868C239.302 15.1216 225.813 7.94083 196.44 0.543223C182.659 -0.68211 175.147 0.0606256 162.118 3.8493Z"
      fill="white"
      fill-opacity="0.5"
      shape-rendering="crispEdges"
    />
  </g>
  <defs>
    <filter
      id="filter0_d_511_43"
      x="0"
      y="0"
      width="385"
      height="365"
      filterUnits="userSpaceOnUse"
      color-interpolation-filters="sRGB"
    >
      <feFlood flood-opacity="0" result="BackgroundImageFix" />
      <feColorMatrix
        in="SourceAlpha"
        type="matrix"
        values="0 0 0 0 0 0 0 0 0 0 0 0 0 0 0 0 0 0 127 0"
        result="hardAlpha"
      />
      <feOffset dy="4" />
      <feGaussianBlur stdDeviation="2" />
      <feComposite in2="hardAlpha" operator="out" />
      <feColorMatrix
        type="matrix"
        values="0 0 0 0 0 0 0 0 0 0 0 0 0 0 0 0 0 0 0.15 0"
      />
      <feBlend
        mode="normal"
        in2="BackgroundImageFix"
        result="effect1_dropShadow_511_43"
      />
      <feBlend
        mode="normal"
        in="SourceGraphic"
        in2="effect1_dropShadow_511_43"
        result="shape"
      />
    </filter>
  </defs>
</svg>
