<svg
  version="1.1"
  id="Layer_1"
  xmlns="http://www.w3.org/2000/svg"
  xmlns:xlink="http://www.w3.org/1999/xlink"
  x="0px"
  y="0px"
  style="enable-background: new 0 0 1296 1728"
  xml:space="preserve"
  viewBox="543.58 743.8 251.85 262.5"
>
  <style type="text/css">
    .st0 {
      stroke: #000000;
      stroke-miterlimit: 10;
    }
  </style>
  <g>
    <path
      class="st0"
      d="M677.3,746.8c11.2,0.2,20.7,2.6,29.2,8c7.5,4.8,12.6,11.6,15.6,20.1c3.3,9.3,6.6,18.6,9.9,27.9 		c0.5,1.4,0.8,2.9,1.6,4.1c4.3,7,6.5,14.8,9.4,22.4c1.4,3.7,2.3,7.6,2.2,11.7c0,2.8,0.6,5.6,0.6,8.4c0,2.8-0.4,5.6-0.7,8.4 		c-0.1,1.5,0.4,2.4,1.5,3.7c3.8,4.4,7.3,9,10.2,14c6.2,10.8,11.9,21.8,17.9,32.7c3.9,6.9,8,13.7,12,20.6c0.7,1.2,2.4,2.7,0.8,3.8 		c-2.1,1.5-2.8-1-3.5-2.2c-5.9-9.6-11.6-19.3-16.6-29.4c-6.4-12.8-13.5-25.2-22-36.6c-0.3-0.4-0.6-0.7-0.9-1.1 		c-0.3,0.4-0.7,0.7-0.9,1.2c-0.7,1.4-0.7,2.9,0.2,4.3c3.9,5.8,5.1,12.4,6.7,19c1.9,8.3,5,16.3,7.4,24.5c3.4,11.9,7.6,23.6,9.7,35.8 		c0.6,3.3,1,6.6,1.3,9.9c0.5,5.1,0.9,10.3,1.2,15.4c0.1,1,0.1,2.1-0.3,2.9c-0.3,0.6-1.2,0.9-1.8,1.4c-0.3-0.5-0.9-1-1-1.5 		c-0.7-6.2-1.4-12.5-2.1-18.7c-0.3-2.5-0.9-4.9-2.5-6.9c-4.5-5.7-6.8-12.5-8.4-19.5c-3.5-14.8-8-29.2-13.1-43.4 		c-1.7-4.6-3.2-9.3-4.9-14c-0.6-1.7-1.7-3.2-2.4-4.9c-0.7-1.9-2.4-3.7-1.1-6.1c0.3-0.5-0.1-1.6-0.6-2.1c-1.1-1.2-2.3-2.4-3.7-3.4 		c-1.2-0.8-1.4-1.7-1.3-3c0.1-1.2,1.2-1.7,2.1-1c1.3,1,2.6,2.1,3.8,3.2c1,0.8,1.9,0.5,2.5-0.6c0.6-1,1-2.1,1.6-3.1 		c0.8-1.4,1.7-2.8,2.5-4.2c-1.7-0.5-3.4-1-5.1-1.4c-7.7-1.8-15.3-4-22.8-6.7c-7.5-2.7-14.2-6.5-20.3-11.4 		c-4.4-3.5-9.1-6.8-13.1-10.7c-4.4-4.3-8.1-9.2-12.1-13.9c-1.2-1.4-2.2-2.9-3.5-4.2c-9.1-8.5-14.8-19.1-18.7-30.7 		c-0.8-2.5-1.4-5.2-2.4-7.6c-0.8-2-0.2-3.1,1.4-4.2c5.3-3.5,10.9-6.1,17.2-7.5C666.1,749,672,746.6,677.3,746.8z M679.8,751.1 		c-7.7-0.6-14.5,1.6-21.3,3.7c-3.6,1.1-6.9,3.1-10.4,4.6c-2.1,0.9-2.5,2.6-1.9,4.5c2.8,10.6,6.5,20.8,14.3,29.1 		c4.3,4.6,8.3,9.5,12.2,14.4c3.3,4.2,6.5,8.3,10.9,11.5c2.7,1.9,5.1,4.2,7.7,6.2c3,2.3,6,4.7,9.3,6.6c11.1,6.4,23.6,9.1,35.9,12.2 		c1.1,0.3,2.2,0.6,3.2,1.1c0.8,0.4,1.4,1,2.1,1.5c0.1-0.8,0.2-1.7,0.1-2.5c-0.4-3.3-0.5-6.7-1.5-9.8c-2.4-7.9-4.8-15.8-8.7-23.2 		c-1.2-2.2-2-4.5-2.8-6.9c-3.6-10.8-7-21.7-11.8-32.1c-2.9-6.2-6.9-11.5-12.9-14.7C696.5,753.2,688.4,750.4,679.8,751.1z 		 M762.8,943.6c-0.1-0.4-0.2-0.9-0.3-1.4c-2.7-9.4-5.2-18.8-8.1-28.1c-3.3-10.5-6.6-21-8.7-31.9c-0.7-3.5-2.7-6.7-4.3-10 		c-0.2-0.5-1-0.7-1.6-1c-0.1,0.6-0.5,1.2-0.3,1.7c1.8,5.3,3.7,10.6,5.4,16c4.5,13.6,8.9,27.2,12.3,41.2c1.1,4.5,3,8.7,4.5,13 		c0.2,0.5,0.5,0.9,0.7,1.3C762.6,944.2,762.7,943.9,762.8,943.6z"
    ></path>
    <path
      class="st0"
      d="M567.9,951.7c0-3,0.1-6,0-9c-0.1-1.8-0.6-3.6-1-5.3c-1-4.5-2.4-9-2.8-13.5c-0.3-3.4,0.6-6.9,1.1-10.3 		c0.6-3.9,1.8-7.8,2.1-11.7c0.2-2.4,1.5-3.1,3.2-3.8c8.4-3.2,16.2-7.5,23.7-12.2c2.1-1.3,3.9-2.9,5.1-5.3c1-1.9,2.3-3.6,3.6-5.4 		c2.6-3.7,3.6-8.1,5-12.3c0.1-0.4,0-1.1-0.2-1.3c-0.2-0.2-0.9-0.2-1.3,0c-9.2,4-19.1,6.7-27.9,11.8c-4.9,2.9-10.3,4.4-16,4.9 		c-1.3,0.1-2,0.5-2.7,1.7c-0.4,0.6-1.8,1.2-2.3,0.9c-0.7-0.3-1.3-1.5-1.3-2.4c0-1.1,0.5-2.2,0.8-3.3c1.5-5.1,3.1-10.1,4.5-15.2 		c0.3-1.1,0.4-2.3,0.4-3.4c0-0.4-0.8-1.2-1.2-1.2c-4.7,0.2-9.2-2.1-13.9-0.4c-1.7,0.6-2.9-0.8-2.7-3c0.2-3.4,1.5-6.6,3.7-9 		c2.2-2.3,3.4-4.9,3.7-7.9c0.4-3.3,1.6-6.4,2.4-9.6c1.3-5.4,5-8.4,9.7-10.4c3.6-1.5,6.7-3.3,8.9-6.7c2-3,4.6-5.7,7-8.4 		c0.6-0.7,1.5-1.6,2.3-1.8c1.5-0.3,3.1,1.2,4.5-0.3c2.6-2.8,6.2-5.1,7.7-8.3c5.2-11.1,13.5-19.6,22-28.1c5-4.9,9.9-9.9,13.4-16 		c0.3-0.6,1.3-0.8,1.9-1.2c0.3,0.7,0.8,1.4,0.7,2.2c0,0.9-0.2,2.1-0.8,2.7c-9.2,10.2-18.6,20.3-27.8,30.5c-3.2,3.5-5,7.8-6.3,12.3 		c-0.8,2.7-1.3,5.6-5.1,5.6c-0.7,0-1.4,0.9-1.9,1.5c-2.6,2.6-5.3,5.1-7.6,7.9c-3,3.6-6.3,6.8-10.7,8.6c-1.9,0.8-3.2,2.1-4.4,3.8 		c-3.2,4.5-6.1,9.1-8.3,14.1c-1,2.2-2.4,4.3-3.7,6.4c-1.9,3.1-2.3,6.5-2,10.1c0,0.4,0.8,1.1,1.2,1.1c3.4,0,7.2,2.1,10-1.7 		c0.2-0.2,0.9,0,1.3,0c1.1,0.1,2.3,0.5,3.2,0.1c2.1-0.8,3.2,0.1,4,1.8c0.3,0.7,0.4,1.7,0.1,2.2c-0.3,0.4-1.4,0.5-2.1,0.4 		c-3.6-0.6-4.1-0.3-5.1,3.2c-1.5,5.4-3,10.7-4.5,16.1c-0.4,1.5,0.2,2.2,1.8,1.8c3.3-0.9,6.7-1.7,9.8-3c3.2-1.3,6.1-3.2,9.3-4.7 		c4-1.9,8.2-3.5,12.3-5.2c4-1.7,7.9-3.3,11.9-4.9c1.7-0.7,3.3-1.3,3.6-3.5c0.1-1,1.6-1.7,2.2-0.6c1.1,1.8,2.2,2.1,4.1,1.5 		c1.2-0.4,2.3,0.3,2.5,1.7c0.2,1.5-0.9,2.1-2,2.4c-1.2,0.3-3-0.2-3.5,0.4c-1.1,1.3-1.8,3.1-2.2,4.9c-1.8,8.3-6.5,15.1-11.1,21.9 		c-0.6,0.9-1.4,1.9-2.3,2.5c-3.2,2.1-6.4,4.1-9.8,5.9c-3.2,1.8-6.5,3.3-9.8,4.8c-2.5,1.2-5.1,2.3-7.6,3.4c-0.1,0.1,0,0.5,0,0.8 		c-0.5,3.4-1.1,6.8-1.6,10.2c-0.1,0.5,0.1,1.1-0.1,1.5c-3.1,7.3-0.3,14.3,1.2,21.3c1.1,5.2,2.1,10.2,1.1,15.7 		c-0.7,4.3,0.2,8.9,0.7,13.3c0.1,1.2,1,2.5,2,3.2c2.8,2,5.6,4.5,8.8,5.4c6,1.7,12,3.8,18,4.8c5.7,1,11.3,2.7,17.1,3 		c6.3,0.3,12.6,0.3,18.9,0c7.6-0.3,15.3-1.5,22.9,0.1c10.3,2.1,19.9,6.1,28.4,12.3c7.1,5.2,15.2,7.6,23.7,9.1c1.4,0.2,2.7,1,4,1.5 		c-1.1,1.4-2.6,1-4.1,0.9c-8-0.6-15.6-2.6-22.5-7c-7.7-4.9-15.8-9.2-24.5-11.8c-5.3-1.6-10.7-3.6-16.5-1.5c-1.2,0.4-2.6,0.1-4,0.1 		c-5,0.2-9.9,0.2-14.9,0.7c-4.8,0.5-9.9-0.4-14.8-1.1c-5-0.7-9.8-2.9-15-2.7c-0.2,0-0.4,0-0.5-0.1c-5-2.7-10.7-3.3-16.1-4.8 		c-4.4-1.2-8-3.9-11.6-6.6c-2.7-2-3.5-5.2-3.6-8.4C567.7,958.7,567.8,955.2,567.9,951.7C567.8,951.7,567.9,951.7,567.9,951.7z"
    ></path>
    <path
      class="st0"
      d="M609.2,835.2c-0.1,5.2-1.9,8.8-4.9,11.5c-4.2,3.7-8.8,2.6-12.5-0.7c-3.6-3.2-4.8-11-2.5-15.2 		c1.7-3.3,4.6-5.6,7.9-7.4c1.2-0.6,2.1-0.1,2.5,0.8c1.4,2.8,3.7,4.6,6.4,5.9C608.6,831.2,609.5,833.4,609.2,835.2z M591.9,836.7 		c0.1,0.6,0,1.8,0.3,2.9c1.2,4.6,6.1,6.8,9.6,4.1c2.6-2,3.6-5.1,4-8.2c0.1-0.7-0.4-1.7-1-2.1c-1.9-1.6-3.9-3.1-5.9-4.6 		c-0.3-0.2-0.9-0.1-1.3,0C593.9,829.3,592,831.7,591.9,836.7z"
    ></path>
    <path
      class="st0"
      d="M761.3,852.4c1.1,0.9,2,1.3,2.5,2.1c4,6.5,8.3,12.8,11.6,19.7c4.4,9.2,10.8,16.6,18.1,23.5 		c0.4,0.3,0.8,0.6,1.1,1c0.2,0.2,0.4,0.8,0.3,0.9c-0.4,0.3-0.9,0.7-1.2,0.6c-0.8-0.2-1.6-0.5-2.2-0.9c-6-4.3-11.4-9.4-14.8-16 		c-4.6-8.8-9.8-17.2-15-25.7c-0.6-1-1.3-2-1.6-3.1C760,853.9,760.8,853.3,761.3,852.4z"
    ></path>
    <path
      class="st0"
      d="M559.6,992.6c0.4-4.9,0.8-9.8,1.3-14.8c0.1-1.5,3.4-4,5-3.8c0.6,0.1,1.3,0.6,1.5,1.1c0.2,0.4-0.1,1.5-0.4,1.6 		c-2.2,0.7-1.8,2.5-1.7,4.1c0.1,1.7,0.5,3.3,2.2,4c1.1,0.4,1.9,0.8,1.1,2c-0.8,1.4-1.9,1.8-3.3,0.9c-0.4-0.2-0.5-0.7-0.8-1.1 		c-0.1,0.3-0.2,0.6-0.2,0.9c0,4.1-0.1,8.3,0,12.4c0,1.2,0.9,2.4,1.2,3.7c0.2,0.7,0.1,1.4,0.1,2.2c-0.9-0.1-2.1,0.2-2.7-0.3 		c-1.9-1.5-3.1-3.4-3.1-5.9c0-2.3,0-4.6,0-7C559.8,992.6,559.7,992.6,559.6,992.6z"
    ></path>
    <path
      class="st0"
      d="M625.8,802.5c-1,0.7-1.6,1.2-2.1,1.3c-1.6,0.4-3.2,0.7-4.8,1c-8.1,1.6-13.3,6.7-16.8,13.9 		c-0.2,0.4-0.4,1-0.7,1.3c-0.6,0.4-1.5,0.8-2,0.6c-0.6-0.3-1.2-1.3-1.2-1.9c0-0.9,0.5-1.9,1-2.7c3.8-5.7,7.7-11.3,14.8-13.3 		c2.8-0.8,5.7-1.2,8.6-1.6C623.3,801.1,624.1,801.8,625.8,802.5z"
    ></path>
    <path
      class="st0"
      d="M599.6,797.5c1.1,0.6,1.7,1,2.4,1.3c-0.4,0.6-0.7,1.7-1.3,1.9c-5.2,1.9-7.7,6.5-10.6,10.7 		c-1.3,1.9-2.6,3.9-4,5.7c-0.4,0.5-1.7,1-1.9,0.9c-0.6-0.6-0.9-1.5-1.3-2.4c-0.1-0.2,0.2-0.6,0.3-0.9c2-3.6,4.1-7.2,6.1-10.8 		c1.1-2.1,2.2-3.8,5.1-4.1C596.2,799.6,597.9,798.3,599.6,797.5z"
    ></path>
    <path
      class="st0"
      d="M651.3,818.2c-0.4,0.7-0.5,1.2-0.9,1.4c-0.7,0.4-1.5,0.6-2.3,0.9c-7.1,2.5-13.3,6.5-19,11.2 		c-0.8,0.6-1.6,1.3-2.5,1.6c-0.6,0.2-1.9,0.2-2-0.1c-0.4-0.8-0.3-1.7-0.3-2.6c0-0.1,0.2-0.3,0.3-0.4c7-4.5,13.3-10.4,21.6-12.8 		c1.2-0.4,2.6-0.4,3.9-0.4C650.4,817,650.9,817.8,651.3,818.2z"
    ></path>
    <path
      class="st0"
      d="M636.8,808c-0.3,0.7-0.4,1.2-0.7,1.5c-0.7,0.7-1.4,1.4-2.2,2c-4.8,3.5-9.6,7.1-14.4,10.5 		c-1.6,1.2-3.3,2.2-5,3.3c-1.4,0.9-2.1-0.2-2.8-1.1c-0.8-1.2,0.1-1.7,0.9-2.3c4.6-3.3,9-6.7,13.7-9.9c2.6-1.8,5.4-3.2,8.2-4.7 		C635,807.2,635.9,807.7,636.8,808z"
    ></path>
  </g>
</svg>
