<svg
  version="1.1"
  id="Layer_1"
  xmlns="http://www.w3.org/2000/svg"
  xmlns:xlink="http://www.w3.org/1999/xlink"
  x="0px"
  y="0px"
  style="enable-background: new 0 0 1296 1728"
  xml:space="preserve"
  viewBox="522.92 644.59 262.65 458.69"
>
  <style type="text/css">
    .st0 {
      stroke: #000000;
      stroke-miterlimit: 10;
    }
  </style>
  <g>
    <path
      class="st0"
      d="M572.5,681.8c7.5-2.7,15.5-3.9,21.2-10.8c2.8-3.3,7-5.6,10.9-7.7c6.4-3.5,12.9-7,19.6-9.8 		c10.2-4.2,20.8-7,31.9-7.5c4.6-0.2,9.3-0.8,13.9-0.9c13.9-0.1,27.6,1.2,40.7,6.1c3.5,1.3,7,3.2,10,5.5c2.7,2,5.6,3,8.7,3.2 		c8.6,0.5,17.3,0.8,25.9,1c2.8,0.1,5.6-0.6,8.4-0.6c2.4,0,4.9,0.6,7.3,1.1c0.4,0.1,0.7,0.9,1,1.4c-0.5,0.3-1.2,1-1.6,0.9 		c-7.6-2.3-13.9,1.7-20.7,3.8c-4.4,1.4-9,2.3-13.5,3.6c-1.1,0.3-1.9,1.4-2.8,2.1c0.9,0.6,1.7,1.6,2.7,1.8c2.6,0.5,5.2,0.8,7.9,0.9 		c2.2,0.1,4.5,0,6.8,0.6c-1.8,2.2-4.2,1.4-6.4,1.6c-2.9,0.3-5.9,0.5-8.8,0.8c0.4,2.8,1.1,5.5,1.1,8.3c0,3.1,1.8,4,4.3,4.4 		c3.3,0.5,6.6,0.9,9.9,1.5c1.1,0.2,2.4,0.3,3.3,0.8c0.9,0.5,1.4,1.6,2.1,2.4c-0.7,0.6-1.4,1.4-2.3,1.7c-3.8,1.2-7.6,2.3-11.5,3.2 		c-2.5,0.6-3.8,1.8-3.7,4.5c0.1,2.7,0.1,5.3,0,8c-0.3,15-1.3,29.9-4.5,44.5c-2.8,12.3-4.9,24.9-8.9,36.8 		c-2.9,8.9-8.1,17.1-12.6,25.4c-2.7,5-5.5,10.1-9.3,14.2c-7.9,8.5-15.9,16.8-26.1,22.8c-9.7,5.7-19.8,10.2-30.6,13.3 		c-9.2,2.6-18.3,2.3-27.6,1.1c-15-1.9-27.2-9-38.3-18.9c-7.9-7-13.7-15.3-17.4-25.1c-4.1-10.9-8.7-21.7-12-32.8 		c-2.2-7.6-3-15.6-3.7-23.6c-0.6-7.6-0.4-15.3,0-23c0.2-5.5,1.1-10.9,2-16.3c1.5-8.8,2.9-17.7,4.9-26.5c1.1-5,3.2-9.8,5.1-14.6 		c1.9-5,5.5-8.7,10.1-11.4c4-2.3,8.3-4.2,12.6-6c0.7-0.3,1.9,0.4,2.9,0.7c-0.7,0.6-1.3,1.4-2,1.7c-3.8,1.6-7.7,3.1-11.5,4.7 		C572.2,681,572.3,681.4,572.5,681.8z M575,692c2.4-3.4,4.8-6.8,7.7-10.8c-3.8,1-6.7,2.5-9.5,2.4c-6-0.2-8.6,3.2-10.5,8 		c-0.5,1.2-1.2,2.4-1.7,3.6c-2.1,5-3.3,10.2-3.5,15.7c2-2.5,4.1-5,4.8-7.9c1.4-5.7,5.6-8.7,9.7-11.9C573.3,690.2,574.6,690,575,692 		c-8.2,6.7-14.6,20.4-13.4,27.8c2.7-4.2,5.6-9,8.8-13.5c1.8-2.5,5.5-4,3-8.1c-0.3-0.4,0.5-1.5,0.7-2.3 		C574.4,694.6,574.7,693.3,575,692z M558.9,717.4c-0.3-0.1-0.7-0.2-1-0.3c-0.7,1.6-1.4,3.3-2.1,4.9c-3.5,9-3.6,18.6-4.7,27.9 		c-0.4,4.1,0.6,8.3,0.6,12.4c-0.1,4.5,2,9.1-0.5,13.6c-0.5,0.9-0.2,2.3,0,3.4c0.9,4.6,1.7,9.2,3,13.6c2.2,7.5,4.5,15,7.2,22.3 		c2.7,7.2,5.2,14.5,9.1,21.1c7.6,13,18.8,22.4,32.6,28.4c12.7,5.4,26.1,6.8,39.6,4.1c15-3.1,29-8.9,40.8-18.9 		c6-5.2,11.6-10.9,16.9-16.9c9.1-10.1,16.1-21.7,20.8-34.4c3.2-8.5,5.2-17.5,7.5-26.3c5.6-21,8-42.4,7.3-64.2c0-1.2,0.2-2.4-0.2-3.5 		c-0.2-0.7-1.2-1.7-1.8-1.7c-3.7,0-7.3,0.2-11,0.3c-9.1,0.2-18.3,0.7-27.4,0.5c-7.8-0.2-15.5-1.3-23.3-1.7 		c-10.4-0.5-20.4,2.2-30.5,4.2c-3.6,0.7-7.2,1.3-10.8,1.7c-0.7,0.1-1.5-0.6-3-1.1c6.8-1.5,12.7-2.8,18.7-4.1 		c-0.9-0.6-1.7-0.6-2.5-0.7c-8.3-0.5-16.1,2.1-24,4.1c-2.5,0.7-5,1.5-7.5-0.7c6-1.5,11.9-3,17.9-4.5c-4-0.7-8-1.4-11.6-0.6 		c-7.5,1.7-15.1,2-22.7,2.6c-4.5,0.4-8.4,1.5-10.9,5.8c-2.6,4.5-5.7,8.6-8.5,12.9c-4.5,7.2-8.9,14.3-10.4,23 		c-1.5,8.1-1.4,16.2-1.4,24.4c0,1.7-0.1,3.3-0.4,5c0,0.4-0.7,1-0.9,1c-0.5-0.2-1.2-0.6-1.4-1c-0.3-0.6-0.3-1.3-0.3-1.9 		c0.3-7.3,0.3-14.5,1.1-21.8c0.8-7.1,2.2-14.2,6-20.4c2.9-4.8,5.9-9.6,8.9-14.4c1.8-2.9,3.6-5.7,6-9.6c-3.4,0.9-5.6,1.8-7.8,2 		c-3.9,0.4-6.5,2.3-8.2,5.7c-1.1,2.1-2.3,4.1-3,6.3c-3,8.9-4.7,18-5.1,27.4c-0.2,4.1-1.1,8.2-1.9,12.3c-0.1,0.6-1.3,1.1-1.9,1.6 		c-0.2-0.7-0.6-1.5-0.7-2.2c-0.2-1.3,0-3.8-0.3-3.9c-3.3-0.5-2.2-1.9-1.3-3.8c0.7-1.4,1-3.1,1.2-4.8c0.7-4.8,1.1-9.6,1.8-14.3 		C557.4,727.2,558.2,722.3,558.9,717.4z M701.6,675.7c0-0.2,0-0.4,0-0.5c-2.6-0.2-5.2-0.4-7.8-0.5c-7.8-0.2-15.6-0.7-23.4-0.5 		c-8.1,0.2-16.2,1.2-24.3,1.7c-2.5,0.2-5,0.1-7.5,0.2c-7.8,0.3-15.6,0.6-23.4,0.8c-0.7,0-1.4,0-2-0.3c-0.6-0.4-1-1.1-1.5-1.7 		c0.7-0.3,1.3-1,2-1c2.8,0.2,5.6,0.9,8.4,0.8c7.3-0.4,14.6-1.9,21.8-1.7c14.8,0.4,29.4-2.7,44.2-1.3c4.1,0.4,8.4,0.2,12.4,1 		c9,1.8,17.5,0.1,26-2.2c0.6-0.2,1.5-1.7,1.4-1.9c-1.5-2.4-3-4.9-5-6.8c-1.1-1-3.4-0.9-5.2-1c-13.1-0.2-26.2,0.6-39.3,2.6 		c-13.3,2-26.7,3-40.1,4.3c-16.3,1.6-32.1,5.7-47.6,10.7c-1.4,0.4-3,1.1-3.8,2.1c-3.5,4.8-6.8,9.8-10.1,14.8 		c-0.4,0.6-0.2,1.6-0.4,3.2c5.5-4.7,9.4-10.3,16.3-11.7c-7.3,4.8-12.6,11.4-18.5,18.8c3.2-0.9,5.4-1.3,7.6-2.1 		c2.8-1,5.4-2.8,8.2-3.3c4.2-0.7,8.6-0.3,12.8-0.6c4.1-0.3,8.3-0.8,12.3-1.5c4.9-0.9,9.7-2,14.8-0.6c5.7,1.5,11.5,1.3,17.1-1 		c3.6-1.4,7.2-2.4,10.9-3.6c3.6-1.2,7.2-2.3,10.8-3.4c-1.7-0.7-3.3-0.8-4.9-0.7c-7.3,0.3-14.6,0.7-21.9,1c-1.3,0.1-2.6-0.1-3.9-0.4 		c-0.4-0.1-1-0.7-0.9-1c0.2-0.5,0.6-1.1,1-1.4c0.4-0.3,1-0.2,1.4-0.3c5.4-0.9,10.8-1.8,16.2-2.7c10.6-1.8,21.3-3.6,31.9-5.6 		C692.3,677.9,697,676.8,701.6,675.7z M593.7,673.8c0.2,0.3,0.3,0.7,0.5,1c1.1-0.3,2.2-0.5,3.2-0.8c15-4.7,30.3-7.5,45.9-9 		c7.9-0.8,15.9-1.1,23.8-2.2c16.1-2.1,32.3-4.1,48.6-3.9c0.7,0,1.5-0.2,2.5-0.4c-3.6-3.4-8.8-6.2-14.7-7.4 		c-9.1-1.9-18.3-3.4-27.6-3.2c-9.5,0.2-19-0.3-28.3,1.4c-13.1,2.3-25.4,6.7-37,13C604.5,665.6,598.9,669.3,593.7,673.8z 		 M657.5,686.1c0.1,0.3,0.1,0.5,0.2,0.8c0.7,0,1.3,0.1,2,0.1c11.5,0.3,22.9,0.4,34.4,1.1c11.1,0.6,22.1,1.9,33.2,2.8 		c1.7,0.1,3.3,0.1,5,0.1c1.6,0,2.5-0.6,2.1-2.4c-0.5-2.3-0.7-4.6-1.2-6.9c-1-4.4-1.3-4.4-5.7-4.6c-11.5-0.5-22.9,0.6-34.2,2.8 		C681.4,682.2,669.4,684,657.5,686.1z M677.4,698.8c0.1,0.5,0.2,0.9,0.2,1.4c10.4,0.6,20.8,1.3,31.3,1.7c4.6,0.1,9.3-0.5,13.9-0.9 		c3.1-0.2,6.3-0.6,9.4-0.9c1.6-0.2,3.5,0,3.5-2.5c0-2.5-1.4-4.3-3.7-4.5c-8.8-0.7-17.5-1.3-26.3-2.1c-5.9-0.5-11.9-1.4-17.8-1.7 		c-3.6-0.2-7.4-0.3-10.8,0.6c-7.8,1.9-15.4,4.3-23,6.6c-1.7,0.5-3.2,1.2-4.9,1.8c8.8,0.2,17.3,1,25.9-0.9c10.2-2.3,20.7-3.1,31-4.3 		c4.7-0.5,9.3,0.1,14.3,2C705.7,696.4,691.6,697.6,677.4,698.8z M727.2,661.8c1.3,2.2,2.2,3.4,2.8,4.7c1.2,2.6,3,3.1,5.7,2.3 		c3.3-1,6.8-1.7,10.1-2.7c2.1-0.6,4.1-1.4,6.1-2.1c-0.1-0.3-0.2-0.6-0.3-0.9C743.8,662.7,735.9,662.3,727.2,661.8z M751,696.6 		c0-0.4,0-0.8-0.1-1.3c-3.2-0.4-6.4-0.9-9.6-1.3c-1.6-0.2-3.1,0.2-3.1,2.2c-0.1,2.3,1.6,2.8,3.3,2.5 		C744.7,698.3,747.8,697.4,751,696.6z"
    ></path>
    <path
      class="st0"
      d="M675.6,1062.3c0.5-2.3,0.9-4.7,1.4-7c2.3-11.7,3.2-23.7,6.6-35.2c3.5-11.6,6.2-23.5,8.6-35.4 		c2.5-12,4.9-24.1,4.8-36.5c-0.1-5-0.7-5.2-5.6-4.8c-4.2,0.4-8.6,0.1-12.9,0c-0.6,0-1.2-1.1-1.8-1.8c0.9-0.4,2.1-1.3,2.5-1 		c4.4,2.6,8.8,0.5,13.2,0.3c3.6-0.1,4.3-1.1,3.7-4.7c-1.3-8.2-2.7-16.4-4.2-24.6c-0.5-2.4-1.6-4.7-2.2-7.1c-0.2-0.6,0.3-1.4,0.4-2.1 		c0.7,0.3,1.5,0.5,2.1,0.9c0.4,0.2,0.4,0.9,0.7,1.3c3.1,6.4,6.3,12.8,9.4,19.3c2,4,4,8.1,5.7,12.2c0.8,1.9,2,3,4.1,2.9 		c2-0.1,4,0.1,6,0c11-0.8,20.5,3.6,29.8,8.7c9,4.9,16.9,11.4,22.7,19.8c3,4.3,5.5,9.2,7.2,14.2c4.5,13.1,7.8,26.4,7.2,40.5 		c-0.5,9.8,0.5,19.7-2.1,29.3c-0.6,2.4-1.4,4.8-2.2,7.1c-0.2,0.4-1.1,0.9-1.5,0.8c-0.5-0.1-0.9-0.9-1.1-1.4 		c-0.1-0.6-0.1-1.4,0.2-1.9c2.8-4.9,3-10.4,3.7-15.9c1.3-10.3,1.2-20.5,0-30.8c-1.2-10.2-4.4-19.8-7.5-29.4 		c-2.7-8.2-8.2-14.4-14.1-20.3c-7.8-7.9-17.6-12.4-27.8-16.1c-6.2-2.3-12.7-2.6-19.2-2.3c-3.2,0.2-3.5,0.7-2.8,4.2 		c1.3,6.5,2.8,13,3.8,19.6c1.5,9.2,2.5,18.4,0.8,27.8c-0.5,3.1-0.1,6.3-0.3,9.5c-0.1,1.8-0.4,3.6-0.7,5.4c-0.3,2-1.5,3.1-3.6,3.6 		c-6.3,1.3-12.6,2.8-19,4c-3.2,0.6-5,2-5.6,5.3c-0.5,3.1-1.6,6.1-2.1,9.2c-2,12.5-4.5,24.9-5.8,37.4c-1,10.2-0.7,20.6,2.8,30.6 		c0.1,0.2,0.1,0.3,0.1,0.5c0.3,1.5,1.7,3.7-0.5,4.3c-2.2,0.6-2-2.1-2.5-3.5c-1.4-3.4-1-7.6-4.2-10.4c-0.4-0.4-0.4-1.6-0.2-2.3 		c1.9-6,0.2-11.9-1.2-17.6c-3.3-13.4-7-26.7-9.9-40.2c-1.8-8.5-4.6-16.6-7.2-24.9c-2.1-6.5-7.4-9.4-11.4-13.7 		c-0.3,0.1-0.7,0.2-1,0.4c0,1.6,0,3.2,0,4.8c0,8.7,0,17.3,0,26c0,1.2,0.2,2.4-0.1,3.5c-0.3,1.1-1.2,2.1-1.8,3.1 		c-0.8-0.7-1.9-1.3-2.4-2.2c-2.6-4.5-4.9-9.1-7.6-13.5c-3.7-6.1-7.8-12-11.6-18c-3-4.6-5.7-9.4-8.7-14c-3-4.6-6.1-9.1-9.2-13.6 		c-3.2-4.7-6.6-9.2-9.4-14.1c-1.6-2.8-2.4-6.2-3.1-9.4c-0.8-3.4-1-4-4-3.4c-6.9,1.3-13.9,2.3-20.4,4.5c-10.6,3.7-19,10.7-25.5,20 		c-1.5,2.2-3,4.4-4.7,6.5c-4.7,6-6.4,13.1-7.4,20.4c-0.4,3.3-0.8,6.6-1,9.9c-0.8,11.9,2.1,23.1,6.6,34c2.4,5.7,3.9,11.8,5.8,17.8 		c-0.4,0.2-0.8,0.4-1.2,0.6c-0.7-0.9-1.7-1.7-2.1-2.8c-3.4-10.1-7.1-20.1-10-30.3c-2.6-9.1-1.6-18.5-0.8-27.8 		c0.6-6.8,1.9-13.6,5.7-19.5c2.4-3.6,4.9-7.2,7.4-10.6c10.1-13.7,23.4-22,40.4-24c6-0.7,11.4-1.4,13.9-8.5c1.3-3.7,4.9-6.5,7.6-9.6 		c0.5-0.5,1.5-0.7,2.2-0.9c3.1-0.8,6.1-1.5,9.2-2.2c4.8-1.1,4.9-1.1,4.1-6.2c-0.4-2.4-1.2-4.7-1.5-7.1c-0.2-1.1,0.1-2.2,0.4-3.3 		c0.2-0.5,1.2-1.3,1.3-1.2c0.6,0.4,1.4,1,1.5,1.6c0.5,3.8,1,7.6,1.2,11.4c0.1,2.2,0.3,4,3.1,4.2c0.5,0,1,1,1.5,1.6 		c-0.5,0.3-1,1-1.5,1c-2-0.1-2,1.3-2,2.7c0,2.3,0,4.7,0.1,7c0.1,3.5,0.6,6.6,4.7,7.8c2.8,0.9,2.3,3.8,2.6,6c0,0.3-1.4,1.2-2.1,1.1 		c-0.6,0-1.3-0.9-1.7-1.6c-0.5-1-0.8-2.1-1.2-3.2c-0.5,1.3-1.1,2.6-1.3,3.9c-0.5,2.6-0.7,5.3-1.1,7.9c-0.1,0.4-0.8,0.8-1.3,1.2 		c-0.4-0.5-1.1-1-1.1-1.4c0.1-2.8,0.5-5.6,0.4-8.5c0-1.1-0.9-2.9-1.7-3.1c-1.7-0.4-3.6,0-5.3,0.4c-0.2,0.1-0.5,1.9-0.1,2.6 		c1.7,4,3.3,8.1,5.5,11.7c5.1,8.2,10.3,16.3,18.4,22.1c3.7,2.7,7,6.1,10.5,9.2c0.5,0.4,0.5,1.2,0.9,1.7c1.6,1.8,3,3.9,5,5.2 		c2.6,1.7,4.7,3.7,5.9,6.5c3.6,8.2,7.1,16.5,8.2,25.6c0.3,2.6,1.2,5.2,1.9,7.8c2.6,9.6,5.2,19.2,7.8,28.8c0.2,0.7,0.5,1.4,0.8,2.1 		C675,1062.3,675.3,1062.3,675.6,1062.3z M640.1,1022c0.3-0.1,0.7-0.2,1-0.3c-0.4-3.7-1-7.5-1-11.2c0.1-6.6,0.5-13.3,0.9-19.9 		c0.1-2.4-0.3-4.6-2.1-6.4c-2.9-2.7-5.5-5.7-8.5-8.3c-9.4-8.3-15.9-18.6-21.4-29.8c-3.8-7.9-2.1-6.9-11.1-7c-5.8,0-7,1.7-5.4,7.3 		c0.4,1.3,0.9,2.5,1.6,3.6c2.8,4.4,5.6,8.7,8.4,13c3.2,4.8,6.6,9.6,9.8,14.5c3,4.6,5.5,9.6,8.8,13.9c6.1,8,11.3,16.4,15.8,25.4 		C637.8,1018.5,639,1020.2,640.1,1022z M713.2,983.7c0.3-12.9-2.2-25.5-5.3-37.9c-0.8-3.3-2.2-4.1-5.3-3.7c-3,0.4-2.5,2.6-2.5,4.5 		c-0.1,4.3,0.4,8.7-0.3,12.9c-2.1,11.8-4.6,23.4-7.1,35.1c-1,4.9-2.5,9.7-3.6,14.5c-0.9,3.8-0.6,4,3.4,3.2 		c5.3-1.1,10.7-2.4,16.1-3.4c2.4-0.4,3.4-1.6,3.5-3.9C712.3,998,712.8,990.8,713.2,983.7z M616.9,929c-0.2-1.2-0.6-3.5-0.9-5.8 		c-0.4-3.5-1.4-4.5-5-4.1c-2.1,0.3-4.2,0.9-6.1,1.9c-0.9,0.4-1.8,2.2-1.5,3c1,3.5,2.4,6.9,3.7,10.3c0.2,0.5,0.8,1.1,1.4,1.3 		C613.1,937.9,617,935.3,616.9,929z M598.1,936.9c5.5,0.1,6.3-0.9,4.6-5.4c-0.1-0.3-0.2-0.6-0.4-0.9c-0.9-1.9-1.8-3.8-2.8-5.7 		c-1.7,1.7-3.7,3.1-5,5c-1,1.5-1.3,3.5-1.9,5.2C594.5,935.8,596.3,936.4,598.1,936.9C598.3,937,598.5,936.9,598.1,936.9z 		 M697.8,921.2c-0.3,0.1-0.6,0.2-0.8,0.3c0.8,5,1.5,10.1,2.5,15.1c0.6,3,1.4,3.2,4.2,2.5c3.2-0.8,1.7-2.9,1.1-4.3 		C702.6,930.2,700.1,925.7,697.8,921.2z"
    ></path>
    <path
      class="st0"
      d="M647,906c0.6,1.5,0.9,2.1,1,2.7c0.3,1.3,0.8,2.5,0.9,3.8c0.7,5.6,1.2,11.2,2,16.7c0.4,2.9,1.4,5.8,2.1,8.6 		c0.3,1.1,0.6,2.2,0.7,3.4c0,0.4-0.7,1-1.2,1.3c-0.3,0.1-1-0.3-1.2-0.6c-0.6-1.2-1.2-2.4-1.4-3.7c-1.4-7.3-2.7-14.6-3.9-21.9 		c-0.4-2.1-0.7-4.2-0.8-6.4C645.1,909.1,645.9,908.3,647,906z"
    ></path>
    <path
      class="st0"
      d="M608.6,833.7c2.1,1.5,4.2,3,6.2,4.6c3.2,2.7,6.5,5.2,9.3,8.3c4.2,4.7,9.9,6.6,15.5,8.6c3.2,1.1,6.2,0.9,9-1.3 		c4.7-3.7,9.4-7.4,14.1-11c4.6-3.5,5.4-3.8,10.7-4.2c-1.6,1.3-2.5,2-3.4,2.7c-3.7,2.7-7.5,5.5-11.2,8.2c-3.1,2.3-6,4.7-9.2,6.7 		c-1.6,1-3.8,1.5-5.7,1.5c-6.6-0.3-12.8-2-17.9-6.5c-5.3-4.6-10.5-9.1-15.7-13.8c-1-0.8-1.7-1.9-2.5-2.9 		C608,834.5,608.3,834.1,608.6,833.7z"
    ></path>
    <path
      class="st0"
      d="M619.7,824.8c-3.1-0.4-5.4-0.6-7.6-1c-0.5-0.1-0.9-0.8-1.3-1.3c0.5-0.4,0.9-1.1,1.4-1.2 		c2.8-0.5,5.6-0.9,8.4-1.2c11.8-1.4,23.7-2.7,35.5-4.1c2-0.2,3.9-1,5.8-1.3c1.1-0.2,2.3-0.2,3.4-0.1c0.3,0,0.8,0.6,0.9,1 		c0,0.3-0.5,0.8-0.9,0.9c-6.9,2.4-14.2,2.7-21.4,3.6c-5.7,0.7-11.5,1.4-17.3,2.1c-0.6,0.1-1.3,0.3-1.9,0.5 		C622.9,823.4,621.1,824.2,619.7,824.8z"
    ></path>
  </g>
</svg>
