<svg
  version="1.1"
  id="Layer_1"
  xmlns="http://www.w3.org/2000/svg"
  xmlns:xlink="http://www.w3.org/1999/xlink"
  x="0px"
  y="0px"
  style="enable-background: new 0 0 1296 1728"
  xml:space="preserve"
  viewBox="495.69 656.8 309.81 431.9"
>
  <style type="text/css">
    .st0 {
      stroke: #000000;
      stroke-miterlimit: 10;
    }
  </style>
  <g>
    <path
      class="st0"
      d="M779.2,812c-0.4,11.3-0.5,22.6-1.3,33.9c-0.7,9.6-2.4,19.1-3.5,28.7c-1.2,10.2-2.1,20.5-3.4,30.7 		c-1,8.4-2.2,16.8-3.6,25.1c-1.6,9.8-3.5,19.6-5.4,29.4c-1.7,9-3.6,17.9-5.3,26.9c-0.4,2.1-0.4,4.3-1,6.4c-0.3,0.9-1.5,1.6-2.2,2.3 		c-0.1-1-0.5-2-0.4-2.9c1.7-9,3.7-17.9,5.3-26.9c1.7-9.1,3.2-18.3,4.8-27.5c1.6-9.3,3.3-18.6,4.6-27.9c1.1-7.7,1.5-15.5,2.4-23.3 		c0.6-5.8,1.4-11.5,2.1-17.3c0.9-6.9,2.4-13.8,2.6-20.7c0.7-18.3,1.3-36.6,0.9-54.9c-0.2-8.4-2.4-16.7-4.4-25 		c-2.2-9.6-8-17.6-14.3-25c-8-9.4-17-17.9-28.7-22.8c-8.8-3.7-18-6-27.5-7.2c-5.3-0.6-10.6-0.8-15.9-0.9c-2.6-0.1-3.2,1-1.8,3 		c5.5,8,7.3,17.4,10.2,26.4c1.3,4.2,1.5,8.9,1.5,13.3c0,9.6-0.3,19.3-0.8,28.9c-0.4,7.3-1.1,14.6-2,21.8c-1.6,12.3-3.3,24.7-5.5,37 		c-1.6,8.4-4.7,16.6-6.4,25c-2.8,14.7-7.1,29.1-8.2,44.1c-0.9,12.4-2.2,24.8-3,37.2c-0.8,13.2-1.3,26.5-1.9,39.8c0,0.7,0,1.3,0,2 		c0.1,1.4,0.8,1.8,1.9,0.8c2.3-1.9,4.5-3.9,6.8-5.8c1-0.8,2-1.8,3.2-2.3c0.5-0.2,1.4,0.4,2.1,0.7c-0.2,0.6-0.3,1.3-0.7,1.7 		c-3.1,2.7-6.2,5.5-9.5,8.1c-3.3,2.6-5,5.6-5.1,10.2c-0.1,8.9-1,17.9-1.7,26.8c-0.5,6.9,0.5,13.6,2.5,20.2c0.9,3.1,2.8,5.6,5.7,7.3 		c0.7,0.4,1,1.3,1.5,2c-0.9-0.1-2.2,0.2-2.7-0.3c-1.9-1.6-4-3.2-5.1-5.3c-1.7-3-3.4-6.4-3.6-9.7c-0.5-6.9-0.2-14,0.1-20.9 		c0.3-6.8,1-13.6,1.4-20.4c0.1-3-0.4-3.2-2.6-1.7c-9.8,6.8-20.9,11-32.3,14.1c-7.2,2-14.6,3.1-22.1,3.8c-8.6,0.9-17.3,0.6-25.9,1.3 		c-8.9,0.8-17.8,2.1-26.7,3.3c-5.4,0.7-10.9,1.3-16.2,2.6c-4.9,1.2-9.8,3.2-14.5,5.2c-6.9,2.9-13.6,6.2-20.5,9.1 		c-3.9,1.7-6.8,0-6.9-4.2c-0.1-2.9,0.5-6,1.3-8.8c1.3-5.1,2.8-10.2,4.4-15.3c3.8-12.4,8-24.7,11.6-37.1c1.4-4.7,1.7-9.8,2.4-14.7 		c0-0.2,0-0.3,0-0.5c1.4-6.3,0.5-11.8-4.2-16.8c-2.6-2.7-2.7-6.7-1.3-10.4c1.6-4.4,2.9-8.9,6.8-12c1.4-1.1,0.8-1.8,0-2.8 		c-4.3-5.3-4.4-7.2-0.8-12.7c0.7-1.1,1.3-2.3,1.9-3.5c2.6-4.7,5.4-9,10.3-11.9c3.7-2.2,5.9-5.8,7.4-9.8c1.6-4.3,0.9-5.5-3.7-5.6 		c-6.2-0.1-12.3-0.7-18.1-2.9c-0.5-0.2-1-0.3-1.4-0.5c-9-3.5-11-9.1-5.3-17.1c2.8-4,6.6-7.4,10.1-10.9c1.1-1.2,2.5-2.2,3.7-3.3 		c13.5-13.5,27.4-26.8,39.2-41.9c5.1-6.5,11.1-12.4,17.1-18.2c6.6-6.3,6.7-10.4,2.4-19.1c-2.2-4.5-4.3-9-6.1-13.6 		c-3.4-8.7-1.9-16.7,3.2-24.6c7.7-11.8,15.1-23.9,22-36.2c4.6-8.1,8.1-16.8,12.5-25c1.1-2.1,1.2-5.3,4.5-5.7 		c-0.7,2.1-1.2,4.3-2.2,6.3c-5,10.5-9.9,21.1-15.2,31.4c-3.7,7.2-7.9,14.2-12.1,21.2c-2.6,4.3-5.5,8.3-8.4,12.4 		c-3.7,5.4-4.1,11.3-2.3,17.2c1.5,4.9,4.2,9.4,6.3,14.1c1.4,3.2,2.9,6.4,3.6,9.8c0.9,4.6,0,9-3.9,12.2c-11.1,9.4-19.7,21.1-29.2,32 		c-6.2,7.1-13.7,13.2-19.8,20.4c-5.7,6.7-13.2,11.2-18.9,17.6c-2.3,2.6-4.1,5.7-5.5,8.8c-2,4.6-0.4,7.7,4.2,9.5 		c4.8,1.9,9.7,3.4,15.1,3c2.3-0.2,4.7-0.1,7,0.3c4,0.6,5,2.2,4.7,6.1c-0.5,6-3.7,10.5-8.3,13.7c-6,4.2-9.6,10-12.8,16.3 		c-2.5,5-1.9,6.9,2.7,10c0.7,0.5,1.4,0.8,2.1,1.3c1.3,0.9,1.7,2-0.1,2.4c-6.4,1.2-7.5,6.6-9.3,11.3c-2.1,5.5-0.1,10.1,4,14 		c1.8,1.6,2.4,3.5,2.2,5.8c-0.5,4.6-1.1,9.2-1.4,13.9c-0.7,9.5-5.2,17.9-7.4,26.9c-2,8.1-4.4,16-6.6,24.1c-0.6,2.1-1.3,4.1-2,6.2 		c-0.7,2.4-1.7,4.8-2,7.2c-0.4,2.4-0.1,4.9-0.1,7.4c2.1-0.7,4.3-1.1,6.3-2c6.4-2.9,12.6-6,18.9-8.9c8-3.7,16.7-4.5,25.2-5.7 		c6.6-0.9,13.2-1.7,19.8-2.3c8.3-0.8,16.6-1.5,24.8-1.8c11.5-0.5,22.9-1.4,33.9-4.9c10.3-3.3,20.4-7.3,29.6-13.1 		c3-1.8,5.1-4.2,5.2-8c0.1-4.6,0.4-9.3,0.7-13.9c0.6-11.1,1.2-22.2,1.9-33.3c0.3-5.6,1.2-11.3,1.1-16.9c-0.2-10.7,1.5-21.2,3.4-31.7 		c2-10.8,4.5-21.5,7-32.1c1.9-8.1,4.6-16,6.1-24.1c1.9-10.1,3.2-20.3,4.6-30.5c1-7.7,2.3-15.5,2.6-23.2c0.3-9.1,1.9-18.1,0.8-27.3 		c-0.9-7.8-1.4-15.6-3.4-23.1c-1.9-6.9-4.4-13.6-8.4-19.7c-1.3-2-2.9-3.3-5.3-2.8c-5.2,1-10.5,2-15.7,3.1c-0.7,0.1-1.2,0.9-1.8,1.4 		c0.4,0.5,0.7,1.1,1.2,1.4c1.8,1.2,3.7,2.3,5.5,3.5c0.4,0.3,0.5,1.1,0.8,1.7c-0.7,0.1-1.6,0.5-2.1,0.3c-2.8-1.6-5.5-3.1-8-5 		c-1-0.8-1.8-2.4-1.8-3.7c0-0.6,1.9-1.7,3-1.9c4.9-1.1,9.8-2,14.7-2.8c5.7-1,5.9-1.1,2.9-5.8c-5.1-7.9-12-14.2-19.7-19.5 		c-3.1-2.2-6.1-4.6-9-7c-0.5-0.4-0.2-1.7-0.3-2.6c0.7,0.2,1.6,0.2,2.2,0.6c11.6,8.6,23.6,17,30.9,30c1.2,2.2,2.8,2.6,5.2,2.6 		c21.1-0.4,41.3,3.9,58.6,16.3c17.7,12.7,30.1,29.4,34.6,51.3C778.8,789,779.1,800.5,779.2,812z"
    ></path>
    <path
      class="st0"
      d="M805,804.8c-0.6,10.4-1.4,22-1.8,33.6c-0.3,8.3-0.2,16.7-0.1,25c0.1,5.6,0.8,11.3,0.8,16.9 		c-0.1,6-0.2,12-1.3,17.9c-2.4,12.7-5.6,25.3-8.1,38c-2.1,10.9-3.7,21.9-5.6,32.9c-2.4,14.1-5,28.1-7.5,42.2c-1,5.4-2,10.8-3.1,16.2 		c-1.8,9.1-3.8,18.2-5.5,27.3c-1.5,7.8-2.6,15.7-3.9,23.6c-0.1,0.7-0.9,1.9-1.1,1.8c-3.3-1-2.5,1.6-2.8,3.2c-0.1,0.3,0.1,0.7-0.1,1 		c-0.6,1.3-1.2,2.6-1.8,3.8c-0.1-1.3-0.4-2.7-0.2-4c1.4-7.5,3.1-14.9,4.4-22.4c1.9-10.9,3.8-21.8,5.4-32.8c1.6-11,2.9-22.1,4.4-33.1 		c1.2-9,2.5-18,3.9-26.9c2.1-12.6,4.5-25.1,6.5-37.7c1.6-10.3,3-20.7,4.3-31.1c1.1-9.2,2-18.5,2.8-27.7c0.3-3.6,0.1-7.3,0.2-11 		c0.3-15.6,0.6-31.2,1-46.8c0.2-6.1,1-12.3,0.8-18.4c-0.6-18.4-1.7-36.8-5.3-55c-0.9-4.7-1.6-9.5-2.6-14.2c-0.3-1.6-0.8-3.3-1.8-4.5 		c-5.1-6.5-10.1-13.3-15.7-19.3c-8.8-9.5-20.3-11.5-32.6-9.5c-6.4,1.1-12.7,3-17.1,8.4c-0.3,0.4-1.4,0.2-2.1,0.2 		c0-0.8-0.2-1.8,0.2-2.2c1.5-1.5,3-3.2,4.8-4.3c19.8-10.9,41.7-5.6,54.4,11.2c0.7,0.9,1.4,1.9,2.1,2.8c1.4,1.7,3,3.3,4.4,4.9 		c-0.6-2.2-1-4.5-1.8-6.6c-3.8-9.5-10-17-18.8-22.6c-13.8-8.9-29.3-12.2-45.2-14.5c-10.4-1.5-20.6-3.8-30.9-5.7 		c-0.8-0.2-1.7-0.3-2.4-0.8c-0.4-0.3-0.7-1-0.7-1.6c0-0.2,0.7-0.7,1.1-0.7c1.2,0,2.3,0,3.5,0.2c13.2,2.6,26.5,4.9,39.6,7.8 		c13.8,3.1,27.5,6.5,39.4,14.9c7.9,5.6,13.1,13.1,16.8,21.8c1,2.5,2.1,5,2.5,7.6c1.2,7.3,5.2,13.2,8.9,19.3 		c3.3,5.4,5.1,11.2,5.4,17.5c0.5,9.8,0.7,19.6,1,29.4C804.3,788.3,804.6,795.9,805,804.8z M800.9,773.8c0.2,0,0.4,0,0.6,0 		c-0.5-8-0.5-16-1.6-23.8c-0.7-5.2-3-10.1-4.7-15.1c-0.2-0.6-1.1-1-1.7-1.5c-0.1,0.6-0.3,1.3-0.2,1.9c1.1,7.2,2.3,14.4,3.3,21.7 		c0.9,6.6,2.4,13.2,2.4,19.7c0,29.1-0.6,58.2-0.9,87.3c0,0.3,0,0.7-0.1,1c-1,9.7-1.8,19.5-2.9,29.2c-1,9.2-2.1,18.5-3.5,27.6 		c-2,13.1-4.4,26.2-6.5,39.3c-2.2,13.6-4.2,27.2-6.2,40.9c-0.2,1.2,0.2,2.5,0.3,3.7c0.6-1.1,1.5-2.1,1.6-3.2 		c1.7-10.6,3-21.3,4.9-31.9c2.4-13.6,5.2-27.1,7.8-40.6c0.7-3.8,1.8-7.4,2.5-11.2c1.6-9.5,3.2-19,4.4-28.5c0.6-4.9,0.5-9.9,0.4-14.9 		c-0.1-11.5-0.8-22.9-0.6-34.4c0.2-10.9,1.5-21.9,1.7-32.8C802,796.7,801.2,785.2,800.9,773.8z"
    ></path>
    <path
      class="st0"
      d="M618,788c-1.3,0.8-2.6,1.4-3.8,2.3c-2.5,2-4,5.4-7.9,5.4c-0.6,0-1,1.2-1.6,1.8c-1,1-2.1,2.9-3.1-0.1 		c0,0-1.5,0.2-1.7,0.5c-1.6,3.4-3.9,5.5-7.9,5.3c-0.4,0-1.3,1.1-1.3,1.6c-0.1,2.3,0,4.6,0.3,6.8c0.2,0.9,1.4,1.6,2.1,2.4 		c0.6-0.9,1.4-1.7,1.8-2.6c0.5-1.6,0.4-3.4,1.2-4.8c1.2-1.9,2.9-3.5,4.4-5.2c0.2-0.2,0.9,0,1.4,0c0,0.4,0.1,1-0.2,1.3 		c-2.1,2.6-2.8,5.6-2.7,8.9c0,0.6,0.2,1.3,0.4,1.9c0.2-0.6,0.4-1.1,0.7-1.7c1.4-2.6,2.8-5.2,4.4-7.7c0.2-0.4,1.1-0.3,1.7-0.5 		c0,0.6,0,1.2-0.1,1.8c-0.5,2.6-0.9,5.1-1.4,7.7c0,0.3,0.1,0.6,0.2,0.9c0.3-0.1,0.7-0.2,0.9-0.4c1.3-1.5,2.5-3.1,3.9-4.5 		c1.8-1.7,3.6-3.3,5.6-4.8c0.3-0.3,1.2,0.2,1.8,0.3c-0.2,0.6-0.2,1.2-0.5,1.7c-0.4,0.5-1,0.9-1.4,1.4c-0.3,0.3-0.3,0.9-0.5,1.3 		c0.5,0,0.9,0.1,1.4,0.1c0.8-0.1,1.5-0.2,2.3-0.3c-0.2,0.7-0.2,1.5-0.6,2.2c-2.9,5.5-2.9,5.5,2.9,7.9c0.3,0.1,0.6,0.2,0.9,0.4 		c5.5,3.3,11,4,16.5-0.1c1.5-1.1,3.7-1.4,5.7-1.7c0.7-0.1,1.6,0.6,2.5,0.9c-0.4,0.7-0.6,1.7-1.2,2c-2.4,1.2-4.8,2.3-7.3,3.3 		c-3.9,1.6-4.1,2.1-1.8,5.7c0.9,1.4,2,2.7,2.7,4.2c0.4,0.9,0.3,2.1,0.4,3.1c-1-0.4-2.2-0.6-3-1.2c-1.4-1.1-2.7-2.5-3.9-3.9 		c-1.6-1.9-2.9-1.8-5.1-0.6c-4.4,2.3-8.9,4.3-13.6,6.1c-4.2,1.6-8.5,1.7-12.6-0.5c-0.6-0.3-1.2-0.6-1.8-0.7c-3.9-1.1-5.3-3.1-4.7-7 		c0.2-1.1,0.4-2.3,0.7-3.4c0.7-2.6,0.4-4.1-2.4-5.9c-6.7-4.3-7.6-14.6-2.6-21c1.6-2.1,3-3.3,6.1-3.8c6.3-1,12-4.4,17.7-7.4 		C615.2,786.4,617.1,785,618,788C618,788,618,788,618,788z M617.3,823.8c-3.2-0.1-3.9,2.4-4.9,4.5c-0.3,0.7-0.2,1.5-0.3,2.3 		c1.7-0.4,3.4-0.8,5.1-1.2c0.5-0.1,0.9-0.4,1.3-0.7c1.4-1,2.9-2,4.3-3C621,825,619.2,824.4,617.3,823.8z"
    ></path>
    <path
      class="st0"
      d="M526.2,776.5c-0.3-2.3-0.6-4.6-0.7-6.9c0-0.8,0.7-1.6,1.1-2.4c0.7,0.6,2,1,2.1,1.7c0.7,3.2,1.3,6.5,1.4,9.8 		c0.2,5.1,0.1,5.1,5,6.3c0.8,0.2,1.7,0.4,2.3,0.9c0.9,0.8,2.4,2.2,2.2,2.8c-0.7,1.8-2.1,0.7-3.2,0.1c-2.1-1.1-3.8-0.9-5.2,1.2 		c-1.1,1.6-2.4,2.1-4.3,1.5c-0.7-0.2-2.2-0.4-2.3-0.1c-1.9,4.2-3.3,0.8-4.8-0.2c-1.2-0.8-2.5-1.6-3.8-2.1c-3.4-1.2-5-3.6-5.7-6.9 		c-0.4-1.9-0.9-3.9-1.8-5.6c-1.1-2.2-0.4-4,1-5.5c0.8-0.8,2.2-1,3.3-1.5c0.3,1,0.7,2,0.8,3.1c0.2,1.6-0.2,3.3,0.2,4.9 		c0.3,1,1.5,1.7,2.2,2.5c0.1-1,0.2-1.9,0.2-2.9c0-3.1,2.8-5.6,5.9-5.1c2,0.3,3.1,2,2.5,4c-0.4,1.4-1.5,2.7-1.7,4.1 		c-0.1,1,0.4,2.9,1.1,3.2c1.9,0.8,2.1-1,2.2-2.3c0.1-1.5,0-3,0-4.5C526,776.6,526.1,776.6,526.2,776.5z"
    ></path>
    <path
      class="st0"
      d="M747.6,1019.8c1.5-6.9,2.9-13.9,4.5-20.8c0.1-0.4,0.6-0.7,0.9-1c0.3,0.5,1,1,0.9,1.5 		c-0.6,4.4-1.2,8.8-1.9,13.2c-0.5,3.1-1.2,6.2-2,9.2c-0.2,0.7-0.8,1.3-1.1,2c-0.3-0.7-0.7-1.3-0.8-2c-0.1-0.6,0-1.3,0-2 		C747.9,1019.8,747.7,1019.8,747.6,1019.8z"
    ></path>
    <path
      class="st0"
      d="M664.7,788.6c-0.6,0.3-1.2,0.6-1.8,0.8c-2.6,0.9-5.2,2-7.9,2.5c-2.6,0.4-5.3-0.2-7.4,1.9 		c-0.3,0.3-1.6,0.1-1.7,0c-0.2-0.7-0.4-1.9-0.1-2.1c1.6-1,3.4-2.1,5.2-2.6c3.7-0.9,7.4-1.3,11.1-1.9c0.7-0.1,1.4,0.2,2,0.3 		C664.3,787.9,664.5,788.3,664.7,788.6z"
    ></path>
    <path
      class="st0"
      d="M631,792.7c-0.4-0.3-1-0.6-1.1-0.9c-0.1-0.4,0-1.1,0.3-1.3c3-1.7,6-3.3,9-4.9c0.2-0.1,0.8,0.3,1.2,0.5 		c0.1,0.1,0,0.8-0.2,0.9C637.2,788.9,634.1,790.8,631,792.7z"
    ></path>
    <path
      class="st0"
      d="M624,788c1.8-0.9,3.5-1.8,5.3-2.5c0.5-0.2,1.3,0.3,2,0.5c-0.3,0.5-0.5,1.2-0.9,1.5c-2,1.6-4.1,3.2-6.3,4.6 		c-0.6,0.4-1.5,0.2-2.2,0.3c0.1-0.7,0-1.5,0.3-2.1C622.7,789.5,623.4,788.8,624,788C624,788,624,788,624,788z"
    ></path>
    <path
      class="st0"
      d="M741.9,1057.6c0,2,0,4.2,0,6.3c0,0.4-0.5,0.7-0.8,1c-0.3-0.3-0.8-0.7-0.8-1c0-4,0-7.9,0.2-11.9 		c0-0.5,1.1-0.9,1.7-1.4c0.1,0.6,0.3,1.2,0.3,1.8C742.2,1054.2,742,1055.8,741.9,1057.6z"
    ></path>
    <path
      class="st0"
      d="M584.8,799.3c-0.4,2-0.5,3.5-1,4.9c-0.4,0.9-1.4,1.5-2.1,2.3c-0.4-1.1-1.4-2.3-1.2-3.2c0.3-1.6,1.2-3,2.1-4.4 		c0.3-0.5,1-0.7,1.5-1C584.4,798.4,584.7,799.1,584.8,799.3z"
    ></path>
    <path
      class="st0"
      d="M638.5,793c-0.3-0.6-0.7-1-0.8-1.4c-0.1-0.4,0-1.1,0.3-1.3c1.4-0.9,2.8-1.8,4.4-2.4c1.1-0.4,2.5-0.2,3.7-0.3 		c-0.9,0.8-1.7,1.6-2.7,2.3C642,790.9,640.4,791.8,638.5,793z"
    ></path>
    <path
      class="st0"
      d="M618,788c1-0.5,2-1.1,3.1-1.5c1.5-0.7,2.6-0.2,2.9,1.5l0,0c-1.8,1.3-3.6,2.6-5.4,3.9c-0.6,0.4-1.3,0.8-2,1.2 		c-0.1-0.9-0.4-1.8-0.1-2.6C616.7,789.6,617.5,788.8,618,788L618,788z"
    ></path>
    <path
      class="st0"
      d="M745.7,1036.2c-0.2-0.4-0.6-0.9-0.5-1.2c0.4-2.4,0.8-4.8,1.3-7.2c0.1-0.4,0.9-0.7,1.4-1 		c0.3,0.5,0.9,1.1,0.8,1.5c-0.6,2.5-1.4,5-2.1,7.5C746.6,1035.9,746.1,1036,745.7,1036.2z"
    ></path>
  </g>
</svg>
