<svg
  version="1.1"
  id="Layer_1"
  xmlns="http://www.w3.org/2000/svg"
  xmlns:xlink="http://www.w3.org/1999/xlink"
  x="0px"
  y="0px"
  style="enable-background: new 0 0 1296 1728"
  xml:space="preserve"
  viewBox="586.89 678.07 137.87 361.09"
>
  <g>
    <path
      d="M695.6,887.1c0.7,7.9,1.5,16.2,2.3,24.4c0.3,3.2-0.6,6.5,1.4,9.6c0.4,0.6-0.2,1.9-0.3,2.9c-0.2,1.4-0.5,2.9-2.2,2.6 		c-0.7-0.1-1.5-1.6-1.7-2.6c-0.5-2.6-0.8-5.2-1-7.9c-0.4-6-0.8-11.9-1.1-17.9c-0.4-7.1-0.6-14.2-1-21.3c0-0.4-0.3-0.8-0.4-1.3 		c-0.3,0.3-0.6,0.7-1,1c-2.1,1.7-2.5,4-2.7,6.6c-0.7,7.8,0.3,15.5,0.3,23.3c0,5.4,1,10.9,1.8,16.2c0.6,4,1,8.3,5.3,10.6 		c0.2,0.1,0.3,1.1,0.1,1.2c-0.8,0.5-1.7,1.1-2.5,1c-0.6-0.1-1.1-1.1-1.6-1.7c-3.4-4.7-5-10.1-5.3-15.8c-0.5-8.1-0.7-16.2-1.1-24.4 		c-0.1-2.6-0.6-5.3-0.9-7.9c-0.1-0.4-0.3-0.8-0.5-1.2c-0.4,0.2-0.9,0.4-1.3,0.7c-2.6,2.6-5.7,4.3-8.9,6.2c-10.9,6.5-22.3,6.6-34.2,4 		c-8.1-1.8-15.4-5-21.9-10.3c-4.7-3.9-8.1-8.7-11.4-13.7c-5.3-8.1-9.1-17-11.2-26.4c-1.2-5.4-2.8-10.9-2.8-16.6 		c0-3.4-0.8-6.9-1.3-10.3c-0.2-1.1-0.5-2.3-0.5-3.4c0.1-2.4-0.4-4.4-1.8-6.5c-2.1-3.1-1.7-4.2,1.4-6.3c1.1-0.7,1.5-1.5,1-2.4 		c-1.3-2.4-1.6-4.5,0.2-6.8c0.4-0.5,0.1-1.6,0.2-2.4c0.3-5.5,0.3-11,1.1-16.4c1.4-9.2,2.8-18.3,5.8-27.1c1.4-4,1.1-8.1,0.5-12.3 		c-0.6-4.6-0.7-9.3-0.2-13.9c0.3-3.2,1.7-6.4,3.2-9.3c3-5.7,5.5-11.8,10.7-16c0.3-0.2,0.5-0.4,0.7-0.7c5.5-6.9,12.9-10.8,20.6-14.5 		c4.4-2.1,8.9-2.3,13.5-1.8c0.7,0.1,1.8,1.5,1.8,2.4c0.1,1.3-1.3,1.5-2.2,1c-5.1-2.9-9.4-0.3-14.1,1.5c-8.6,3.2-14.9,9.3-20.8,15.8 		c-3.9,4.3-6.6,9.6-8.4,15.1c-1,3.3-2.2,6.5-2.5,10.1c-0.3,3.5,0.1,6.9,0.6,10.3c0.6,3.5,0.8,6.8-0.2,10.3 		c-1.3,4.6-2.6,9.3-3.6,13.9c-1,4.7-2.1,9.4-2.5,14.1c-0.6,6.4-0.8,12.9-1.1,19.4c-0.1,1.2-0.2,2.3-0.4,3.5c-0.9,5,1.5,8,6.6,8.3 		c1.3,0.1,2.7,0,4,0c0.4,0,1.1,0.4,1.1,0.6c0,0.4-0.3,0.9-0.6,1.3c-1.2,1.2-2.6,1.3-4.2,0.8c-1.9-0.6-3.8-1.3-5.7-1.8 		c-0.5-0.1-1.1,0.1-1.7,0.2c0.3,1.6,0,3.6,0.9,4.6c2.1,2.4,6.5,2.4,9.1,0.5c0.5-0.4,0.9-1.1,1.5-1.3c0.6-0.3,1.4-0.2,2.1-0.2 		c-0.1,0.8,0,1.7-0.4,2.3c-1.7,2.4-5.9,3.6-9,2.7c-4.5-1.4-4.8-1.3-4.2,3.2c2,15.6,3.4,31.3,11,45.6c0.7,1.3,1.1,2.8,1.8,4.1 		c1,1.8,1.2,1.7,2.5-0.2c0.3-0.4,0.6-0.8,1-1.1c0.2-0.2,0.7-0.5,0.8-0.4c0.3,0.3,0.6,0.7,0.7,1.1c0.1,0.5,0.1,1,0,1.5 		c-0.9,8.3,4,13.3,10.3,17.3c2,1.3,3.9,2.7,6.9,2c3.8-0.9,7.5-1.7,9.8-5.1c0.8-1.2,1.6-2.6,1.9-4c1-5-0.2-6.1-5.1-4.5 		c-3.6,1.2-7.2,2.5-11.2,2.1c-0.8-0.1-1.7,0.1-2.5-0.2c-1-0.4-2.7-1.5-2.6-1.8c0.6-1.8,2-1.1,3.2-0.7c2.5,0.8,4.9,0.5,7.3-0.3 		c3.3-1.1,6.7-1.8,10-2.8c0.4-0.1,0.8-0.6,1.1-0.9c-0.3-0.1-0.5-0.4-0.8-0.4c-4.7,0.3-8.8-2.7-13.4-2.8c-4.1-0.1-7.7-1.7-11.4-3.2 		c-0.8-0.3-1.6-0.6-2.2-1.1c-0.4-0.3-0.5-1-0.8-1.6c0.5-0.1,0.9-0.2,1.4-0.3c0.1,0,0.3,0.1,0.5,0.1c8,4.2,17,4.2,25.4,6.3 		c1.9,0.5,2.9,0.2,3-1.9c0-0.3,0.1-0.7,0.2-1c0.4-1.7,1.6-3.7,1.2-5.2c-0.3-1.2-2.6-1.8-3.9-2.8c-3.4-2.6-6.9-5.2-10.2-8 		c-1.5-1.3-3-2.5-4.9-1.3c-1.8,1.2-4.5,1.8-4.4,4.8c0,0.8,0,1.7-0.2,2.5c-0.2,0.5-0.9,1.1-1.4,1c-0.5,0-1.3-0.8-1.2-1.2 		c0.3-1.8,0.4-3.7,1.2-5.2c1.6-3,4.6-4.3,7.8-4.9c1.1-0.2,2.6,0.4,3.5,1.2c4.7,3.9,9.3,7.9,14.8,10.7c2,1,2.2,3.2,1.7,5.3 		c-0.7,2.7-1.6,5.4-2.2,8.2c-0.4,1.8-0.9,3.6-0.9,5.3c-0.3,8.6-3.7,13.2-11.9,15.6c-0.8,0.2-1.6,0.4-2.4,0.6c0.8,0.4,1.6,1,2.5,1.2 		c7,2,13.9,4.6,21.3,4.4c8.9-0.3,16.8-3.3,24.1-8.2c0.8-0.6,1.6-1.2,2.4-1.8c4-2.7,6-6.1,6-11.2c0-5.9,1.1-11.8,1.7-17.7 		c0.4-4.1,0.6-8.3,1.2-12.4c1-6.9,2.1-13.7,3.5-20.5c2-9.7,4.2-19.4,6.3-29.1c0.7-3-0.2-5.7-1.9-8c-3-4.1-4.8-8.7-6.6-13.3 		c-3.1-7.8-1.2-16.6,5.1-22.3c1-0.9,1.2-1.2,0.4-2.3c-4.7-6.6-9.2-13.4-14.1-19.9c-4.2-5.6-8.7-10.8-13.1-16.3 		c-2.6-3.2-5.6-4.4-9.6-3c-5,1.8-10,3.4-15.1,5.1c-2.3,0.8-3.4,2.5-4,4.7c-0.1,0.3-0.8,0.8-1,0.7c-0.4-0.1-0.7-0.7-0.8-1.1 		c-0.5-2.2,0.3-4,2.2-5.1c1.7-1,3.6-1.8,5.4-2.5c4.2-1.4,8.5-2.7,12.8-4c1.4-0.4,1.5-1.4,0.6-2.1c-1.8-1.4-3.7-2.9-5.8-3.7 		c-6.3-2.5-12.7-4.7-19.1-7.1c-1.1-0.4-2.3-0.6-3.3-1.1c-0.6-0.3-0.9-1.1-1.3-1.7c0.7-0.3,1.5-0.9,2.1-0.7 		c9.4,3.2,19.1,5.7,27.6,11.1c3,1.9,5.6,4.8,9.6,4.9c6.4,4.1,13.2,7.8,19.2,12.4c4.1,3.2,6.3,7.9,5.4,13.6c-0.4,2.4,0.3,4.9,0.7,7.4 		c0.3,1.8,1.6,2.2,3.3,1.2c1.4-0.9,2.7-1.9,4-2.9c3.9-3,6.4-2.9,10.3,0.1c5.3,4.1,8.4,9.8,11,15.7c1.7,3.9,4,7.8,3.2,12.4 		c-1.1,6.5-2,13.1-7.5,17.8c-0.9,0.8-1.6,1.7-2.5,2.5c-2.4,2-3.8,4.2-2.2,7.3c0.3,0.5,0.1,1.3,0.1,2c-0.3,3.8-0.6,7.6-0.8,11.4 		c-0.4,7.5-0.3,15-1.2,22.4c-0.9,7.4-2.1,14.8-5,21.7c-0.6,1.4-1.3,2.3,1.3,2.1c2.2-0.1,3.4,1.9,3.8,4c0.4,1.7-0.4,3-1.7,3.8 		c-0.8,0.5-2.2,1.1-2.7,0.7c-3.1-2.1-2.8,0.7-3.2,2.1c-0.4,1.2-0.1,2.6-0.3,4c-0.3,3.1-0.6,6.3-0.9,9.4c0,0.3-0.1,0.7-0.1,1 		c0.4,5.8,0.8,11.6,1.3,17.3c0.4,3.9,1.1,7.8,1.6,11.8c0,0.3,0.1,0.7-0.1,1c-0.3,0.5-0.9,1.4-1.1,1.3c-0.6-0.2-1.6-0.7-1.7-1.3 		c-0.8-3.9-1.8-7.8-2.1-11.7c-0.6-6.9-0.9-13.9-1-20.9c-0.1-2.6,0.6-5.2,0.9-7.9c0-0.4-0.3-0.8-0.4-1.2c-0.2,0.2-0.5,0.4-0.7,0.7 		c-0.6,1.1-1.6,2.3-1.7,3.5C696.5,876.2,696.1,881.5,695.6,887.1z M722.2,763.7c-0.4-1.7-0.5-4-1.5-5.8c-2.7-5.1-5.6-10.2-8.7-15.1 		c-0.9-1.5-2.6-2.6-4-3.7c-1.6-1.2-3.2-1.3-4.9,0.3c-1.5,1.5-3.4,2.7-5.1,4c-1.5,1.2-1.7,2.8-0.1,3.8c0.8,0.5,1.9,0.8,2.8,0.7 		c3.4-0.1,5.5,1.6,7.2,4.4c2.6,4.3,4.3,9,5,13.9c0.4,2.9,1,6.3-1,8.7c-2.3,2.8-1.7,5.5-0.8,8.4c0.2,0.7,0.8,1.4,1.2,2.1 		c0.7-0.4,1.4-0.7,2-1.3C719.7,778.6,720.9,771.4,722.2,763.7z M704,838.6c0,2.8,0,4.5,0,6.1c0,0.5,0.2,0.9,0.3,1.4 		c0.2-0.5,0.5-1,0.7-1.6c2.8-9.1,3.2-18.5,3.9-27.9c0.4-5.6-0.5-11.3,0.9-16.8c0.4-1.7,0.1-3.6,0-5.5c-0.1-1.5-0.9-2.4-2.7-2 		c-1.2,0.3-2.6,0.5-3.8,0.2c-1.5-0.4-2.1-0.1-2.4,1.4c-1.2,5.8-2.4,11.6-3.7,17.4c-0.8,3.5-2.3,7,1.7,9.5c0.1,0.1,0.1,0.3,0.2,0.4 		C702.1,827.2,705,833,704,838.6z M691,765.1c-0.7,4.8,1.6,9.1,3.7,13.4c0.3,0.6,0.5,1.2,0.8,1.8c0.2-0.6,0.3-1.2,0.5-1.8 		c0.3-1.1,0.6-2.3,1-3.3c1.1-2.6,3.8-3,5.5-0.8c0.7,0.9,1.2,2,1.8,3c0.1,0.2,0.6,0.3,0.8,0.3c0.2-0.1,0.6-0.5,0.6-0.7 		c0-0.6-0.1-1.3-0.3-1.9c-2.5-7-5-14-7.6-21c-0.5-1.4-1.2-1.8-2.6-0.7C691.5,756.2,690.7,760.3,691,765.1z M696,833 		C696,833,696,833,696,833c0-3.5,0-7-0.1-10.5c0-0.6-0.3-1.1-0.5-1.7c-0.2,0.6-0.4,1.2-0.5,1.8c-0.7,3.2-1.4,6.4-1.9,9.7 		c-0.8,5.5-1.5,11.1-2.2,16.7c-0.7,5.6-1.2,11.1-1.8,16.7c-0.2,1.6-0.6,3.3-0.7,4.9c-0.1,1.2,0.1,2.5,0.2,3.7c1.1-1,2.2-1.9,3.1-3 		c0.4-0.4,0.3-1.3,0.3-1.9c0.3-3.9,0.6-7.9,1-11.8c0.4-3.7,0.5-7.6,1.7-11.1c0.6-1.7,1.3-3.2,1.3-5C696,838.6,696,835.8,696,833z 		 M688,733.7c0.5-0.5,0.9-0.7,0.9-0.9c0.7-2.2,1.4-4.3,0.1-6.7c-3.1-6.1-8.6-9.5-14.3-12.6c-0.3-0.2-0.8,0.1-1.3,0.2 		c0.2,0.3,0.3,0.6,0.5,0.9c4.4,6,8.8,12,13.3,18C687.5,732.8,687.8,733.3,688,733.7z M710.7,769.3c-0.8-6.3-2.7-11.9-6.1-16.9 		c-0.4-0.6-1.3-1-2-1.3c-1.3-0.5-2.2,0.3-1.7,1.7c1.9,5.8,3.8,11.6,5.8,17.4c0.4,1.2,1.4,2.1,2.1,3.2c0.6-1.3,1.3-2.6,1.9-3.9 		C710.7,769.4,710.7,769.2,710.7,769.3z M699.1,844.3C699.1,844.3,699,844.3,699.1,844.3c-0.1,3.7-0.1,7.3,0,11 		c0,1.6,0.2,3.3,0.3,4.9c0.5-1.8,1.4-3.5,1.6-5.4c0.3-2.8,0-5.7,0.1-8.5c0.2-4.6,0.5-9.2,0.6-13.8c0-1.1-0.7-2.1-1.1-3.2 		c-0.1-0.2-0.5-0.4-0.8-0.5c-0.2,0.3-0.6,0.7-0.7,1C699.1,834.6,699.1,839.4,699.1,844.3z M709,785.9c-0.4-1.1-0.8-3.1-1.6-4.8 		c-0.5-1.1-1.8-0.6-1.8,0.2c-0.2,2.3-1.9,3.7-2.8,5.5c-0.4,0.7-0.5,2.1,0,2.7c0.5,0.7,1.7,1.1,2.6,1.1 		C707.3,790.6,708.9,788.8,709,785.9z"
    ></path>
    <path
      d="M611.9,976.4c0.5,4.6,1.4,9.7,1.6,14.8c0.3,7.8,4.7,14.1,7.1,21c1.4,3.9,2.6,7.8,3.9,11.7c0.4,1.2,0.9,2,2.4,0.8 		c1.6-1.4,3.5-2.5,5.3-3.7c0.4-0.2,1.1,0,1.7,0.1c-0.2,0.6-0.3,1.2-0.7,1.7c-0.3,0.4-0.9,0.4-1.3,0.8c-0.6,0.5-1,1.1-1.5,1.7 		c0.6,0.2,1.2,0.5,1.8,0.7c2.1,0.6,4.2,1.1,5,3.6c0.1,0.5,1.3,1,1.8,0.9c5.9-1.6,11.8-2.9,16.7-7.3c3.6-3.2,7.8-5.6,11-9.2 		c0.7-0.8,1.8-1.5,1.9-2.2c0.2-3.4,2.4-4.6,5.2-5.7c1.4-0.5,2.4-2.1,3.4-3.4c1.5-2,2.4-4.5,4.2-6.2c3.9-3.7,6.5-7.9,8.1-13 		c0.6-2,1.9-3.6,4-4c0.4-0.1,1.3,0.7,1.2,0.8c-0.5,2.1-0.8,4.3-1.9,6.1c-1.9,3.1-4.4,5.8-6.4,8.9c-4.7,7.3-11.3,12.9-17,19.3 		c-3.4,3.8-7,6.9-11.3,9.5c-2.8,1.7-5.3,4.1-8.3,5.4c-3.3,1.5-6.9,2.4-10.4,3.2c-1.9,0.5-3.2,1.1-4.2,2.9c-1.9,3.3-5.4,4.4-9,2.9 		c-2.3-1-4.4-2.3-6.5-3.7c-2.2-1.5-2.1-2.9,0-4.8c0.5-0.4,1.1-0.8,1.7-1.1c1.4-0.7,1.2-1.6,0.8-2.9c-2.2-7.5-4.3-15-8.1-21.9 		c-2-3.7-2.8-7.7-3.1-11.9c-0.3-4.3-1.1-8.5-1.6-12.8c-0.3-2.3-0.9-4.7,0.7-6.7c0.4-0.5,1.3-0.7,2-1c0.1,0.6,0.4,1.2,0.4,1.7 		C612.3,974.2,612.1,975,611.9,976.4z M629.2,1037.1c0.8-0.4,1.8-0.9,2.7-1.5c0.2-0.1,0.5-0.7,0.4-0.8c-0.3-0.3-0.7-0.5-1.1-0.7 		c-0.3-0.1-0.7-0.1-1,0c-2.8,1.5-4.7,0.8-5.9-2.1c-0.1-0.3-0.4-0.6-0.7-0.7c-0.5-0.3-1.1-0.4-1.7-0.6c0,0.7-0.3,1.5-0.1,2.2 		C623.2,1035.9,626.2,1036.2,629.2,1037.1z"
    ></path>
    <path
      d="M643.7,795.4c2.7,0.8,5.4,1.5,8,2.4c1.6,0.5,3,1.3,4.5,2c0.5,0.3,0.9,0.7,1.4,1.1c-0.7,0.3-1.4,1.1-2,0.9 		c-1.7-0.4-3.5-1-5-1.9c-2.7-1.6-5.5-2.4-8.5-1.9c-1.2,0.2-2.4,1-3.3,1.9c-0.5,0.4-0.3,1.5-0.5,2.3c0.8,0.1,1.7,0.6,2.2,0.3 		c3.9-1.8,6.3,0.3,8.6,3c1,1.1,0.8,2.2,0,3.1c-0.5,0.6-1.3,0.8-1.9,1.2c-0.2-0.6-0.6-1.3-0.7-1.9c-0.1-2-1.3-3.6-3.1-3.6 		c-2.1,0.1-4.3,0.6-5.7,2.5c-0.4,0.5-0.3,1.6,0,2.2c2.1,3.3,6.5,4.5,9.9,2.5c2.1-1.2,3.9-3,5.8-4.6c1-0.8,1.9-1.8,3-2.6 		c0.2-0.1,0.7,0,0.9,0.1c0.2,0.2,0.4,0.6,0.3,0.8c-0.3,0.8-0.5,1.7-1.1,2.2c-2.6,2.2-5.1,4.8-8.1,6.4c-4,2.2-8,1.4-11.3-2.1 		c-1-1.1-2.1-2.1-3.1-3.2c-1.1-1.2-1.7-2.4,0-3.8c0.5-0.4,0.7-1.4,0.8-2.2C636.1,797.1,637.7,795.9,643.7,795.4z"
    ></path>
    <path
      d="M630,941.7c1.1,6.2-1,12.2-4.2,18c-2.9,5.1-5.5,10.2-8.3,15.4c-0.3,0.6-0.7,1.2-1.2,1.6c-0.3,0.2-1,0.3-1.4,0.1 		c-0.3-0.2-0.7-0.9-0.6-1.2c0.8-1.7,1.7-3.2,2.5-4.9c2.9-5.6,6-11.1,8.6-16.8c1.9-4.2,2.6-8.6,1.8-13.5c-0.8-4.9-0.8-9.9-2.2-14.7 		c-0.5-1.6-1-3.1-1.5-4.7c-0.4-1.1-1.1-2.4,0.6-2.8c0.5-0.1,1.6,0.9,1.9,1.6C629,926.6,630.6,933.7,630,941.7z"
    ></path>
    <path
      d="M679.9,817.9c-0.3-1.7-0.5-3.4-0.9-5c-0.4-1.5-1.1-3-1.7-4.5c-0.7,1.4-1.5,2.7-2.1,4.1c-0.2,0.4,0,1.3-0.3,1.4 		c-0.6,0.3-1.3,0.3-2,0.3c-0.2,0-0.4-0.5-0.5-0.8c-0.7-2,1.8-8.7,3.7-9.7c0.6-0.3,1.5,0,2.2,0.3c0.4,0.1,0.6,0.8,0.8,1.2 		c4.2,7.7,4.5,15.7,1.5,23.8c-0.8,2.1-2.3,3.2-4.3,3.8c-2.6,0.8-5.1-1.2-4.9-4c0-0.5,0.7-1.2,1.2-1.4c0.3-0.1,1,0.5,1.4,0.9 		c0.6,0.7,1.1,1.4,1.7,2.2c0.7-0.7,1.8-1.2,2-2.1C678.5,824.9,679.2,821.3,679.9,817.9z"
    ></path>
    <path
      d="M608.6,821.2c0.8-2.5,1.4-5.1,2.6-7.5c2-4.2,4.6-8.1,4-13.1c-0.1-0.4,0.8-1.3,1.1-1.2c0.5,0.1,1.3,0.6,1.4,1.1 		c0.7,2.1,0.6,4.2-0.5,6.3c-1.2,2.2-2.2,4.5-3.3,6.7c-1.4,2.9-2.1,6-1.8,9.2c0.2,2.5,1,3.3,3.4,3.3c1.1,0,2.4,0,3.4-0.5 		c3-1.3,5.5,0.4,8.3,0.8c0.3,0,0.7,1.2,0.6,1.6c-0.2,0.4-1.1,1-1.5,0.9c-3.4-1.1-6.8-0.8-10.3-0.1 		C612.5,829.5,608.9,825.3,608.6,821.2z"
    ></path>
    <path
      d="M665.1,797.3c-0.2,0.5-0.3,1-0.5,1.1c-0.4,0.2-0.9,0.2-1.3,0.1c-0.4-0.2-0.9-0.5-1.1-0.9c-4.1-6.2-11-6.7-17.4-8.3 		c-4.4,1.2-9.2,1.4-13.1,4.2c-0.4,0.3-0.7,0.9-1.1,1c-0.5,0.1-1.2-0.1-1.7-0.3c-0.2-0.1-0.2-1.1,0-1.3c1.1-1,2.1-2.3,3.5-2.7 		c3.8-1.2,7.6-2.4,11.5-3c2-0.3,4.3,0.2,6.3,0.9c4.9,1.7,10.4,2.6,13.8,7.3C664.4,796,664.7,796.7,665.1,797.3z"
    ></path>
    <path
      d="M663.8,751.6c2.4,0.6,4.7,1.3,7.1,1.9c0.9,0.3,1.8,0.7,2.8,1c0.7,0.2,1.3,0.4,2,0.6c-0.7,0.6-1.2,1.4-2,1.9 		c-0.5,0.3-1.5,0.2-1.9-0.2c-2.1-1.8-4.6-1.6-7-2c-4.3-0.6-5.7,0.1-7.5,3.7c-0.4,0.9-0.1,2.8-2,2c-1.7-0.8-1.1-2.2-0.4-3.4 		C657,753.9,659.3,751.1,663.8,751.6z"
    ></path>
    <path
      d="M615.8,793.9c-0.3,0.3-0.7,0.8-0.9,0.8c-1.1-0.4-2.1-0.8-3.2-1.3c-3.7-1.8-7.2-2.6-10.5,0.8c-0.4,0.4-1.1,0.6-1.8,0.8 		c-0.2,0.1-0.7-0.1-0.9-0.3c-0.2-0.4-0.4-1-0.3-1.3c1.3-2.7,5.2-5,8.3-4.2c3,0.7,5.7,2.5,8.5,3.8C615.5,793,615.6,793.5,615.8,793.9 		z"
    ></path>
  </g>
</svg>
